<svg xmlns="http://www.w3.org/2000/svg" width="23.018" height="23.011" viewBox="0 0 23.018 23.011">
  <path id="buy.5" d="M15.333,12.156h3.045a.842.842,0,0,0,0-1.684H15.333a.842.842,0,0,0,0,1.684ZM21.994,6.32a1.856,1.856,0,0,1,1.55.752A2.427,2.427,0,0,1,23.962,9l-1.044,7.364a2.824,2.824,0,0,1-2.781,2.458H8.145A2.825,2.825,0,0,1,5.353,16.2L4.342,3.962,2.682,3.67a.843.843,0,0,1,.286-1.66l2.621.4a.841.841,0,0,1,.681.763L6.48,5.69a.677.677,0,0,0,.67.63ZM7.969,20.6A1.7,1.7,0,1,0,9.629,22.3,1.688,1.688,0,0,0,7.969,20.6Zm12.365,0a1.7,1.7,0,1,0,1.66,1.706A1.688,1.688,0,0,0,20.334,20.6Z" transform="translate(-1.486 -1.489)" fill="none" stroke="#fff" stroke-width="1" fill-rule="evenodd"/>
</svg>
