<svg xmlns="http://www.w3.org/2000/svg" width="40" height="40" viewBox="0 0 40 40">
  <path id="_843776_google_icon" data-name="843776_google_icon" d="M43.842,20.741q-9.6,0-19.206,0c0,2.6,0,5.2,0,7.805q5.561,0,11.122,0a9.383,9.383,0,0,1-4.086,6.178,11.806,11.806,0,0,1-4.494,1.739,13.586,13.586,0,0,1-4.871-.015,12.117,12.117,0,0,1-4.544-1.922,12.452,12.452,0,0,1-4.678-6.142,11.883,11.883,0,0,1,0-7.788,12.372,12.372,0,0,1,2.962-4.715A12.164,12.164,0,0,1,28.141,12.8a11.112,11.112,0,0,1,4.4,2.533Q34.423,13.5,36.3,11.658c.657-.659,1.347-1.29,1.983-1.967A19.821,19.821,0,0,0,31.712,5.7a21.037,21.037,0,0,0-13.748-.118A20.374,20.374,0,0,0,6.4,15.51a19.622,19.622,0,0,0,0,17.959,20.238,20.238,0,0,0,5.545,6.678,20.474,20.474,0,0,0,7.416,3.665,22.244,22.244,0,0,0,10.441.11,18.566,18.566,0,0,0,8.356-4.26,18.1,18.1,0,0,0,5.164-8.3A23.044,23.044,0,0,0,43.842,20.741Z" transform="translate(-4.227 -4.488)" fill="#fff"/>
</svg>
