<svg xmlns="http://www.w3.org/2000/svg" width="19.857" height="23" viewBox="0 0 19.857 23">
  <g id="Group_13239" data-name="Group 13239" transform="translate(-173.898 -20.5)">
    <path id="Path_36472" data-name="Path 36472" d="M12.429,1a5.238,5.238,0,0,1,5.238,5.238v2.1H20.81a1.048,1.048,0,0,1,1.048,1.048V21.952A1.048,1.048,0,0,1,20.81,23H4.048A1.048,1.048,0,0,1,3,21.952V9.381A1.048,1.048,0,0,1,4.048,8.333H7.19v-2.1A5.238,5.238,0,0,1,12.429,1Zm5.238,10.476h-2.1v1.048a1.048,1.048,0,0,0,2.088.123l.007-.123Zm-8.381,0H7.19v1.048a1.048,1.048,0,0,0,2.088.123l.007-.123ZM12.429,3.1A3.143,3.143,0,0,0,9.291,6.054l-.005.184v2.1h6.286v-2.1A3.143,3.143,0,0,0,12.613,3.1Z" transform="translate(171.398 20)" fill="none" stroke="#fff" stroke-width="1"/>
    <path id="Path_31566" data-name="Path 31566" d="M189.207,250.055a.554.554,0,0,0-.783,0l-2.474,2.474-.951-.951a.554.554,0,0,0-.784.784l1.343,1.343a.554.554,0,0,0,.783,0l2.866-2.866A.554.554,0,0,0,189.207,250.055Z" transform="translate(-2.884 -215.116)" fill="#fff"/>
  </g>
</svg>
