<svg id="hide.4" xmlns="http://www.w3.org/2000/svg" width="29.412" height="23.336" viewBox="0 0 29.412 23.336">
  <path id="show.2" d="M17.13,4.007,16.709,4C10.619,4,5.131,8.263,2.09,15.239a1.073,1.073,0,0,0,0,.858l.211.471c3,6.529,8.193,10.571,13.982,10.762l.421.007c6.09,0,11.578-4.263,14.619-11.239a1.073,1.073,0,0,0,0-.868l-.2-.457C28.1,8.231,22.911,4.2,17.13,4.007Zm-.411,2.165.351.007.393.02c4.7.33,9.026,3.788,11.639,9.467l-.014.035c-2.678,5.8-7.151,9.279-12,9.454l-.375.006-.378,0-.392-.02c-4.556-.32-8.756-3.584-11.385-8.943l-.249-.526.23-.486C7.311,9.5,11.841,6.174,16.719,6.172ZM16.705,10a5.669,5.669,0,1,0,5.753,5.669A5.71,5.71,0,0,0,16.705,10Zm0,2.174a3.495,3.495,0,1,1-3.546,3.5A3.521,3.521,0,0,1,16.705,12.173Z" transform="translate(-2 -4)" fill="#fff" fill-rule="evenodd"/>
</svg>
