<svg xmlns="http://www.w3.org/2000/svg" width="25.316" height="24.051" viewBox="0 0 25.316 24.051">
  <path id="filter.3" d="M9.291,7.2A2.529,2.529,0,1,0,6.762,9.7,2.515,2.515,0,0,0,9.291,7.2Zm2.234,0A4.763,4.763,0,0,1,2,7.2a4.763,4.763,0,0,1,9.525,0Zm15.792,0A1.11,1.11,0,0,0,26.2,6.1H17.041a1.1,1.1,0,1,0,0,2.2H26.2A1.11,1.11,0,0,0,27.316,7.2ZM20.025,21.85a2.529,2.529,0,1,0,2.529-2.5A2.515,2.515,0,0,0,20.025,21.85Zm-2.234,0a4.763,4.763,0,1,1,4.762,4.7A4.736,4.736,0,0,1,17.791,21.85Zm-14.673-1.1h9.157a1.1,1.1,0,1,1,0,2.2H3.118a1.1,1.1,0,1,1,0-2.2Z" transform="translate(-2 -2.5)" fill="#690707" fill-rule="evenodd"/>
</svg>
