<svg id="hide.4" xmlns="http://www.w3.org/2000/svg" width="29.412" height="25" viewBox="0 0 29.412 25">
  <path id="hide.4-2" data-name="hide.4" d="M16.706,12.47A3.562,3.562,0,0,0,13.119,16a3.431,3.431,0,0,0,.421,1.619l4.812-4.737A3.6,3.6,0,0,0,16.706,12.47Zm10.86-8.66a1.088,1.088,0,0,1,1.522,0,1.047,1.047,0,0,1,0,1.5L5.846,28.189a1.086,1.086,0,0,1-1.522,0,1.046,1.046,0,0,1,0-1.5l7.641-7.523a5.515,5.515,0,0,1-1-3.168,5.7,5.7,0,0,1,5.738-5.649,5.8,5.8,0,0,1,3.221.979l2.991-2.943A11.342,11.342,0,0,0,9.54,9.05,18.533,18.533,0,0,0,4.253,16a21.219,21.219,0,0,0,2.065,3.573,1.049,1.049,0,0,1-.253,1.477,1.087,1.087,0,0,1-1.5-.249,23.6,23.6,0,0,1-2.476-4.385,1.042,1.042,0,0,1,0-.837,20.908,20.908,0,0,1,6.119-8.2,13.57,13.57,0,0,1,16.259-.523ZM31.324,15.58A23.356,23.356,0,0,0,28.54,10.8a1.087,1.087,0,0,0-1.506-.21,1.048,1.048,0,0,0-.213,1.484A20.879,20.879,0,0,1,29.159,16c-2.759,5.979-7.387,9.533-12.453,9.533a10.862,10.862,0,0,1-3.391-.546,1.08,1.08,0,0,0-1.36.67A1.057,1.057,0,0,0,12.634,27a13.031,13.031,0,0,0,4.072.654c6.069,0,11.534-4.2,14.618-11.234A1.043,1.043,0,0,0,31.324,15.58Zm-11.1,1.049a3.549,3.549,0,0,1-2.871,2.83,1.058,1.058,0,0,0,.19,2.1,1.252,1.252,0,0,0,.194-.016A5.7,5.7,0,0,0,22.339,17a1.059,1.059,0,0,0-.869-1.23A1.077,1.077,0,0,0,20.222,16.629Z" transform="translate(-2 -3.5)" fill="#fff" fill-rule="evenodd"/>
</svg>
