<svg xmlns="http://www.w3.org/2000/svg" width="27.45" height="23.054" viewBox="0 0 27.45 23.054">
  <path id="home" d="M26,11.139l-11.454-8.7a2.5,2.5,0,0,0-2.753,0L.443,11.139A1.021,1.021,0,0,0,1.1,13.011h1.1V19.73a4.4,4.4,0,0,0,4.406,4.3h2.2a1.041,1.041,0,0,0,1.1-1.1v-5.4a2.306,2.306,0,0,1,2.2-2.313h2.2a2.306,2.306,0,0,1,2.2,2.313v5.4a1.1,1.1,0,0,0,1.1,1.1h2.2a4.4,4.4,0,0,0,4.406-4.3V13.011h1.1A1.051,1.051,0,0,0,26,11.139Z" transform="translate(0.545 -1.471)" fill="none" stroke="#fff" stroke-width="1"/>
</svg>
